 <svg  version="1.0" xmlns="http://www.w3.org/2000/svg"  width="300.000000pt" height="258.000000pt" viewBox="0 0 300.000000 258.000000"  preserveAspectRatio="xMidYMid meet">  <g transform="translate(0.000000,258.000000) scale(0.050000,-0.050000)" fill="#11af0e" stroke="none"> <path d="M2863 4899 l-142 -242 297 -514 c1939 -3358 2312 -4004 2354 -4068 l49 -75 279 0 c154 0 280 5 280 11 0 6 -150 269 -333 585 -183 316 -625 1078 -983 1694 -1547 2667 -1644 2835 -1653 2846 -3 3 -69 -104 -148 -237z"/> <path d="M2362 4027 c-115 -194 -208 -363 -208 -375 0 -12 222 -404 494 -872 l493 -850 -1006 -6 -1005 -5 -235 -395 -234 -394 1474 -6 1475 -5 285 -495 c156 -271 303 -523 324 -559 l40 -65 421 0 c278 0 420 7 420 21 0 11 -361 644 -802 1405 -441 761 -1006 1737 -1255 2169 -249 431 -457 784 -463 784 -5 0 -104 -158 -218 -352z"/> <path d="M1635 2786 l-391 -676 398 -5 c219 -3 577 -3 795 0 l397 5 -387 670 c-213 369 -395 673 -404 676 -9 3 -193 -299 -408 -670z"/> <path d="M287 474 c-144 -244 -258 -451 -254 -459 15 -24 3987 -19 3987 5 0 12 -113 219 -252 460 l-251 440 -1484 -1 -1483 0 -263 -445z"/> </g> </svg> 