<?xml version="1.0" standalone="no"?>
<!DOCTYPE svg PUBLIC "-//W3C//DTD SVG 20010904//EN"
 "http://www.w3.org/TR/2001/REC-SVG-20010904/DTD/svg10.dtd">
<svg version="1.0" xmlns="http://www.w3.org/2000/svg"
 width="428.000000pt" height="368.000000pt" viewBox="0 0 428.000000 368.000000"
 preserveAspectRatio="xMidYMid meet">

<g transform="translate(0.000000,368.000000) scale(0.100000,-0.100000)"
fill="#000000" stroke="none">
<path d="M2112 3631 l-22 -39 84 -144 c134 -230 1487 -2555 1743 -2997 136
-235 231 -407 225 -413 -4 -4 -89 -7 -187 -6 l-178 3 -40 65 c-33 54 -685
1178 -1627 2808 -112 193 -206 352 -209 352 -4 0 -202 -336 -440 -748 -380
-653 -691 -1187 -1301 -2237 l-157 -270 1068 -3 c588 -1 1550 -1 2138 0 l1068
3 -459 790 c-253 435 -605 1040 -782 1345 -797 1371 -890 1530 -896 1530 -3 0
-16 -18 -28 -39z m-181 -712 c138 -231 1305 -2242 1537 -2650 62 -107 112
-200 112 -206 0 -15 -202 -25 -405 -21 l-160 3 -36 60 c-20 33 -120 206 -224
385 -103 179 -192 328 -199 332 -6 4 -466 8 -1023 8 -556 0 -1014 3 -1016 8
-3 4 66 124 152 267 l156 260 698 3 c568 2 699 5 703 15 3 8 -98 191 -224 408
-334 577 -452 785 -452 798 0 29 271 482 285 478 6 -2 49 -68 96 -148z m-327
-697 c140 -236 416 -712 416 -717 0 -3 -241 -5 -535 -5 -294 0 -535 3 -535 6
0 6 8 20 240 419 240 413 290 490 305 473 7 -7 56 -86 109 -176z m924 -1520
c25 -35 285 -496 308 -544 10 -21 14 -41 10 -45 -10 -11 -2732 -10 -2742 0
-10 9 17 59 194 362 74 127 142 236 150 243 12 9 235 12 1038 12 l1023 0 19
-28z"/>
</g>
</svg>
